# xmcd
#
# Track frame offsets:
#	150
#	17970
#	37627
#
# Disc length: 801
#
# Revision: 1
# Processed by: cddbd v1.5.1PL0 Copyright (c) Steve Scherf et al.
# Submitted via: CDex 1.50beta8
# Normalized: r0:TRMNUM
#
DISCID=16031f03
DTITLE=ROCKING TIME - 少年時代
DYEAR=1900
DGENRE=Rock
TTITLE0=少年時代
TTITLE1=Everybody Is A Star
TTITLE2=少年時代(Piano Dub Version)
EXTD=
EXTT0=
EXTT1=
EXTT2=
PLAYORDER=
